<?xml version="1.0" standalone="no"?>
<!DOCTYPE svg PUBLIC "-//W3C//DTD SVG 20010904//EN"
 "http://www.w3.org/TR/2001/REC-SVG-20010904/DTD/svg10.dtd">
<svg version="1.0" xmlns="http://www.w3.org/2000/svg"
 width="500.000000pt" height="500.000000pt" viewBox="0 0 500.000000 500.000000"
 preserveAspectRatio="xMidYMid meet">
<metadata>
Created by potrace 1.11, written by Peter Selinger 2001-2013
</metadata>
<g transform="translate(0.000000,500.000000) scale(0.100000,-0.100000)"
fill="#000000" stroke="none">
<path d="M3761 3747 l-1235 -1237 -1262 0 -1262 0 375 -377 c206 -208 489
-493 630 -634 l255 -256 -523 -526 c-288 -289 -542 -544 -564 -566 l-39 -41
54 -55 55 -55 565 565 566 565 562 -565 562 -566 55 57 c31 31 54 58 53 60 -2
1 -255 255 -562 563 -308 309 -557 563 -555 566 2 2 252 253 554 556 l550 553
1113 0 c613 1 1118 -2 1124 -5 6 -4 10 -405 11 -1150 l2 -1144 74 0 c43 -1 75
3 77 9 2 6 3 1115 2 2465 l-3 2454 -1234 -1236z m1081 -192 c0 -570 -2 -1038
-4 -1041 -3 -2 -472 -3 -1044 -2 l-1039 3 1039 1042 c572 574 1041 1041 1044
1039 2 -2 4 -471 4 -1041z m-2484 -1207 c-4 -9 -961 -973 -976 -982 -6 -4
-215 199 -499 484 -268 270 -489 494 -490 498 -2 4 440 7 982 7 542 0 984 -3
983 -7z"/>
</g>
</svg>
